<svg viewBox="72.057 96.53 465.485 138.337" xmlns="http://www.w3.org/2000/svg"><g transform="translate(7.157 -96.714)"><path class="st0" d="M72.33 300.05h-.19v6.07c0 1.86-1.08 3.72-3.62 3.72-2.45 0-3.62-1.86-3.62-3.92v-66.4c0-2.54 1.47-4.7 4.41-4.7 3.04 0 4.41 2.16 4.41 4.7v27.62h.29c2.84-4.31 9.11-8.23 16.85-8.23 14.1 0 23.11 10.58 23.11 25.66 0 14.79-8.81 26.05-23.11 26.05-7.76.01-15.1-3.81-18.53-10.57m32.52-15.28c0-10.87-6.47-17.73-15.57-17.73-9.89 0-16.16 6.66-16.16 17.43.1 10.77 6.17 18.02 15.96 18.02 9.5.01 15.77-7.14 15.77-17.72m15.76 10.97c0-10.38 8.91-15.96 19.39-15.96 5.19 0 11.06 1.27 16.35 4.31 0-11.36-4.31-17.04-14.98-17.04-3.43 0-6.95.69-9.99 1.67-.98.29-1.96.59-2.64.59-2.25 0-3.53-1.37-3.53-3.72 0-1.96 1.37-3.43 3.53-4.31 4.31-1.76 9.01-2.35 13.91-2.35 18.61 0 22.23 12.34 22.23 27.91v7.25c0 5.29.39 6.66 3.62 8.32 1.57 1.08 2.16 2.45 2.16 3.82 0 2.45-1.47 4.5-5.09 4.41-5.68-.69-7.93-5.09-8.32-10.19h-.2c-4.5 6.76-11.07 10.19-18.8 10.19-11.08-.01-17.64-5.3-17.64-14.9m35.74-5.48c-4.5-2.74-9.6-4.11-14-4.11-7.44 0-12.63 3.33-12.63 9.11 0 5.58 3.82 8.23 10.28 8.23 8.81-.01 15.67-6.87 16.35-13.23m31.14 9.79h-.19v6.07c0 1.86-1.08 3.72-3.62 3.72-2.45 0-3.62-1.86-3.62-3.92v-66.4c0-2.54 1.47-4.7 4.41-4.7 3.04 0 4.41 2.16 4.41 4.7v27.62h.29c2.84-4.31 9.11-8.23 16.85-8.23 14.1 0 23.11 10.58 23.11 25.66 0 14.79-8.81 26.05-23.11 26.05-7.75.01-15.1-3.81-18.53-10.57m32.52-15.28c0-10.87-6.47-17.73-15.57-17.73-9.89 0-16.16 6.66-16.16 17.43.1 10.77 6.17 18.02 15.96 18.02 9.5.01 15.77-7.14 15.77-17.72M239.69 331c-1.66-.68-2.55-1.96-2.55-3.92 0-2.25 1.57-3.72 3.92-3.62.78.1 1.27.1 1.76.1 6.07 0 9.21-6.37 11.46-12.34l-18.61-45.25c-1.08-2.84.88-6.27 4.41-6.27 2.64 0 3.62 1.86 4.31 3.92l14.59 38.29h.29l14.49-38.49c.69-1.86 1.67-3.72 4.51-3.72 3.43 0 5.09 2.84 3.82 6.17l-17.63 43.58c-5.88 14.59-11.36 22.13-20.76 22.13-1.36.01-2.74-.09-4.01-.58" fill="#00b3e4"/><path class="st1" d="M435.87 271.29c-.12-10.33-5.56-19.37-19.4-19.36-21.6.05-37 21.32-36.92 39.4.05 11.39 6.53 19.57 19.4 19.54 20.44 0 36.92-19.74 36.92-39.58m-36.11 36.66c-6.11-.01-9.15-5.03-9.11-14.54.06-19.61 14.15-38.55 25.7-38.55 6.11.02 8.77 5.68 8.79 14 .12 17.46-12.43 39.09-25.38 39.09m130.21-48.44c-1.31-4.45-6.95-8.62-16.33-7.7-22.67 2.23-37.08 25.69-33.01 44.27 1.35 6.12 5.66 14.85 19.65 14.85 14 0 21.05-10.27 21.45-10.86 2.86-4.25 2.19-6.7-1.04-2.87-2.64 3.14-10.4 11.19-18.93 10.2-8.27-.97-11.35-10.88-10.25-21.04 32.49-5.59 40.98-18.26 38.46-26.85m-27.62 1c2.89-3.24 6.86-5.6 9.97-6.03 11.87-1.63 12.04 23.3-20.54 28.94 1.96-11.78 6.83-18.86 10.57-22.91m-177.71-40.28c-22.77.07-30.41 13.4-30.45 16.84-.02 1.06.03 1.77.6 1.2.76-.75 2.14-3.49 4.96-5.94 6.6-5.74 23.05-11.97 41.69-5.32 18.64 6.65 28.62 25.92 21.73 48.14-7.04 22.63-21.07 28.55-34.62 31-13.45 2.42-28.65 1.17-28.65 1.17s-.05-.04-.02-.06c3.11-3.26 9.38-17.26 16.45-37.65 7.49-21.57 13.98-29.75 20.58-35.35 2.21-1.89-3.97-.78-5.9-.02-1.69.66-16.23 5.43-24.83 28.11-8.7 22.95-14.5 37.25-17.33 42.25-2.82 5.01-4 6.25.16 6.25 21.26 0 31.31.15 39.4-.36 15.79-.98 45.71-7.06 48.8-40.28 3.03-32.21-29.35-50.05-52.57-49.98m127.53 79.15c13.83-11.43 21.64-27.63 22.95-35.68 1.3-8.04-.16-10.78.75-11.16.9-.39 5.61 3.52 5.32 9.61-.13 2.68-1.6 12.35-14.16 27.79-12.72 15.65-23.82 22.03-25.24 20.92-1.42-1.11 1.08-15.13.58-32.05-.52-16.92-3.89-20.68-4.91-24.61-.26-1.06.66-.85.66-.85v.01c.24.04 9.71 1.78 13.04 10.99 3.57 9.9 1.74 28.6.98 35.01 0 0 0 .03.03.02" fill="#001f5b"/><path class="st2" d="M291.43 204.59c.01.4-.51.47-1.07.64-3.34 1-5.61 2.93-10.35 11.51-4.75 8.59-21.25 52.48-92.82 5.14-.13-.09-.84-.55-.91-.8-.03-.13.03-.23.16-.27.14-.04.31-.01.44.01.58.13 1.86.4 3.58.79 7.13 1.61 24.88 3.49 36.97 1.72 3.08-.45 5.72-.92 8.55-2.05 1.91-.77 1.87-1.44 1.71-1.74-.14-.26-.32-.56-2.79-.02-2.69.55-6.73.62-12.49-.19-10.78-1.55-19.22-6.67-20-7.25 0 0-1.84-1.09-1.65-1.51.08-.17.47-.07.61-.06l.73.07c11.46.32 22.21-4.2 38.1-13.87 8.04-4.89 16.39-4.17 20.42-.55 0 0 7.16 5.32.52 15.14-1.54 2.37.09 3.17 6.51-3.7 6.41-6.88 13.46-10.89 21.11-4.96l2.16 1.48c.01-.01.48.26.51.47z" fill="#abe0f4"/><linearGradient id="a" gradientUnits="userSpaceOnUse" x1="242.619" y1="231.553" x2="291.511" y2="231.553"><stop offset=".134" stop-color="#b68941"/><stop offset=".239" stop-color="#c9a15e"/><stop offset=".415" stop-color="#eccb8e"/><stop offset=".5" stop-color="#ffe1a5"/><stop offset=".565" stop-color="#f7d79b"/><stop offset=".661" stop-color="#e6c385"/><stop offset=".777" stop-color="#d0a566"/><stop offset=".906" stop-color="#b3813e"/><stop offset=".913" stop-color="#b27f3c"/></linearGradient><path class="st3" d="M291.51 225.15c.01.18-.23.21-.5.3-1.55.46-2.6 1.36-4.81 5.35-2.21 3.99-9.88 24.4-43.15 2.38-.06-.05-.39-.26-.43-.37-.02-.06.01-.11.07-.12a.38.38 0 01.21.01c.27.06.86.18 1.66.37 3.31.74 11.57 1.62 17.2.8 1.43-.21 2.65-.43 3.97-.96.89-.36.87-.67.8-.8-.07-.12-.15-.27-1.3-.01-1.25.25-3.13.29-5.81-.1-5.01-.71-8.93-3.09-9.29-3.36 0 0-.85-.51-.77-.71.04-.07.22-.03.29-.03l.34.03c5.33.14 10.33-1.96 17.72-6.45 3.74-2.27 7.62-1.94 9.49-.26 0 0 3.34 2.47.24 7.03-.71 1.1.05 1.48 3.02-1.72 2.98-3.2 6.26-5.06 9.81-2.3l1.01.68c0 .01.22.14.23.24z" fill="url(#a)"/></g></svg>